# Blender v2.79 (sub 0) OBJ File: 'Hologram_Projector.blend'
# www.blender.org
mtllib Hologram_Projector.mtl
o Cylinder
v 0.000000 -0.022730 -0.104861
v 0.000000 -0.008105 -0.074718
v 0.020457 -0.022730 -0.102846
v 0.014577 -0.008105 -0.073282
v 0.040128 -0.022730 -0.096879
v 0.028593 -0.008105 -0.069030
v 0.058257 -0.022730 -0.087188
v 0.041511 -0.008105 -0.062125
v 0.074148 -0.022730 -0.074148
v 0.052833 -0.008105 -0.052833
v 0.087188 -0.022730 -0.058257
v 0.062125 -0.008105 -0.041511
v 0.096879 -0.022730 -0.040128
v 0.069030 -0.008105 -0.028593
v 0.102846 -0.022730 -0.020457
v 0.073282 -0.008105 -0.014577
v 0.104861 -0.022730 -0.000000
v 0.074718 -0.008105 -0.000000
v 0.102846 -0.022730 0.020457
v 0.073282 -0.008105 0.014577
v 0.096879 -0.022730 0.040128
v 0.069030 -0.008105 0.028593
v 0.087188 -0.022730 0.058257
v 0.062125 -0.008105 0.041511
v 0.074148 -0.022730 0.074148
v 0.052833 -0.008105 0.052833
v 0.058257 -0.022730 0.087188
v 0.041511 -0.008105 0.062125
v 0.040128 -0.022730 0.096879
v 0.028593 -0.008105 0.069030
v 0.020457 -0.022730 0.102846
v 0.014577 -0.008105 0.073282
v -0.000000 -0.022730 0.104861
v -0.000000 -0.008105 0.074717
v -0.020457 -0.022730 0.102846
v -0.014577 -0.008105 0.073282
v -0.040128 -0.022730 0.096878
v -0.028593 -0.008105 0.069030
v -0.058257 -0.022730 0.087188
v -0.041511 -0.008105 0.062125
v -0.074148 -0.022730 0.074148
v -0.052833 -0.008105 0.052833
v -0.087188 -0.022730 0.058257
v -0.062125 -0.008105 0.041511
v -0.096879 -0.022730 0.040128
v -0.069030 -0.008105 0.028593
v -0.102846 -0.022730 0.020457
v -0.073282 -0.008105 0.014577
v -0.104861 -0.022730 -0.000000
v -0.074718 -0.008105 -0.000000
v -0.102846 -0.022730 -0.020457
v -0.073282 -0.008105 -0.014577
v -0.096878 -0.022730 -0.040129
v -0.069030 -0.008105 -0.028593
v -0.087188 -0.022730 -0.058258
v -0.062125 -0.008105 -0.041511
v -0.074148 -0.022730 -0.074148
v -0.052833 -0.008105 -0.052833
v -0.058257 -0.022730 -0.087188
v -0.041511 -0.008105 -0.062125
v -0.040128 -0.022730 -0.096879
v -0.028593 -0.008105 -0.069030
v -0.020457 -0.022730 -0.102846
v -0.014577 -0.008105 -0.073282
v 0.017098 -0.001119 -0.085959
v 0.000000 -0.001119 -0.087643
v 0.033540 -0.001119 -0.080972
v 0.048692 -0.001119 -0.072873
v 0.061973 -0.001119 -0.061973
v 0.072873 -0.001119 -0.048692
v 0.080972 -0.001119 -0.033540
v 0.085959 -0.001119 -0.017098
v 0.087643 -0.001119 -0.000000
v 0.085959 -0.001119 0.017098
v 0.080972 -0.001119 0.033540
v 0.072873 -0.001119 0.048692
v 0.061973 -0.001119 0.061973
v 0.048692 -0.001119 0.072873
v 0.033540 -0.001119 0.080972
v 0.017098 -0.001119 0.085959
v -0.000000 -0.001119 0.087643
v -0.017098 -0.001119 0.085959
v -0.033540 -0.001119 0.080972
v -0.048692 -0.001119 0.072873
v -0.061973 -0.001119 0.061973
v -0.072873 -0.001119 0.048692
v -0.080972 -0.001119 0.033540
v -0.085959 -0.001119 0.017098
v -0.087643 -0.001119 -0.000000
v -0.085959 -0.001119 -0.017098
v -0.080972 -0.001119 -0.033540
v -0.072873 -0.001119 -0.048692
v -0.061973 -0.001119 -0.061973
v -0.048692 -0.001119 -0.072873
v -0.033540 -0.001119 -0.080972
v -0.017098 -0.001119 -0.085959
v 0.014587 -0.001379 -0.073334
v 0.000000 -0.001379 -0.074771
v 0.028613 -0.001379 -0.069079
v 0.041540 -0.001379 -0.062170
v 0.052871 -0.001379 -0.052871
v 0.062170 -0.001379 -0.041540
v 0.069079 -0.001379 -0.028614
v 0.073334 -0.001379 -0.014587
v 0.074771 -0.001379 -0.000000
v 0.073334 -0.001379 0.014587
v 0.069079 -0.001379 0.028613
v 0.062170 -0.001379 0.041540
v 0.052871 -0.001379 0.052871
v 0.041540 -0.001379 0.062169
v 0.028613 -0.001379 0.069079
v 0.014587 -0.001379 0.073334
v -0.000000 -0.001379 0.074771
v -0.014587 -0.001379 0.073334
v -0.028614 -0.001379 0.069079
v -0.041540 -0.001379 0.062169
v -0.052871 -0.001379 0.052871
v -0.062170 -0.001379 0.041540
v -0.069079 -0.001379 0.028613
v -0.073334 -0.001379 0.014587
v -0.074771 -0.001379 -0.000000
v -0.073334 -0.001379 -0.014587
v -0.069079 -0.001379 -0.028614
v -0.062169 -0.001379 -0.041540
v -0.052871 -0.001379 -0.052871
v -0.041540 -0.001379 -0.062170
v -0.028613 -0.001379 -0.069079
v -0.014587 -0.001379 -0.073334
v 0.000000 -0.008511 -0.055467
v 0.010821 -0.008511 -0.054401
v 0.021226 -0.008511 -0.051245
v 0.030816 -0.008511 -0.046119
v 0.039221 -0.008511 -0.039221
v 0.046119 -0.008511 -0.030816
v 0.051245 -0.008511 -0.021226
v 0.054401 -0.008511 -0.010821
v 0.055467 -0.008511 -0.000000
v 0.054401 -0.008511 0.010821
v 0.051245 -0.008511 0.021226
v 0.046119 -0.008511 0.030816
v 0.039221 -0.008511 0.039221
v 0.030816 -0.008511 0.046119
v 0.021226 -0.008511 0.051245
v 0.010821 -0.008511 0.054401
v -0.000000 -0.008511 0.055467
v -0.010821 -0.008511 0.054401
v -0.021226 -0.008511 0.051245
v -0.030816 -0.008511 0.046119
v -0.039221 -0.008511 0.039221
v -0.046119 -0.008511 0.030816
v -0.051245 -0.008511 0.021226
v -0.054401 -0.008511 0.010821
v -0.055467 -0.008511 -0.000000
v -0.054401 -0.008511 -0.010821
v -0.051245 -0.008511 -0.021226
v -0.046119 -0.008511 -0.030816
v -0.039221 -0.008511 -0.039221
v -0.030816 -0.008511 -0.046119
v -0.021226 -0.008511 -0.051245
v -0.010821 -0.008511 -0.054401
v 0.000000 0.013422 -0.000000
vn 0.0000 -0.4135 -0.9105
vn 0.0000 0.8944 -0.4471
vn 0.0872 0.8944 -0.4386
vn 0.1776 -0.4135 -0.8930
vn 0.1711 0.8944 -0.4131
vn 0.3484 -0.4135 -0.8412
vn 0.2484 0.8944 -0.3718
vn 0.5058 -0.4135 -0.7570
vn 0.3162 0.8944 -0.3162
vn 0.6438 -0.4135 -0.6438
vn 0.3718 0.8944 -0.2484
vn 0.7570 -0.4135 -0.5058
vn 0.4131 0.8944 -0.1711
vn 0.8412 -0.4135 -0.3484
vn 0.4386 0.8944 -0.0872
vn 0.8930 -0.4135 -0.1776
vn 0.4471 0.8944 0.0000
vn 0.9105 -0.4135 0.0000
vn 0.4386 0.8944 0.0872
vn 0.8930 -0.4135 0.1776
vn 0.4131 0.8944 0.1711
vn 0.8412 -0.4135 0.3484
vn 0.3718 0.8944 0.2484
vn 0.7570 -0.4135 0.5058
vn 0.3162 0.8944 0.3162
vn 0.6438 -0.4135 0.6438
vn 0.2484 0.8944 0.3718
vn 0.5058 -0.4135 0.7570
vn 0.1711 0.8944 0.4131
vn 0.3484 -0.4135 0.8412
vn 0.0872 0.8944 0.4386
vn 0.1776 -0.4135 0.8930
vn 0.0000 0.8944 0.4471
vn 0.0000 -0.4135 0.9105
vn -0.0872 0.8944 0.4386
vn -0.1776 -0.4135 0.8930
vn -0.1711 0.8944 0.4131
vn -0.3484 -0.4135 0.8412
vn -0.2484 0.8944 0.3718
vn -0.5058 -0.4135 0.7570
vn -0.3162 0.8944 0.3162
vn -0.6438 -0.4135 0.6438
vn -0.3718 0.8944 0.2484
vn -0.7570 -0.4135 0.5058
vn -0.4131 0.8944 0.1711
vn -0.8412 -0.4135 0.3484
vn -0.4386 0.8944 0.0872
vn -0.8930 -0.4135 0.1776
vn -0.4471 0.8944 0.0000
vn -0.9105 -0.4135 0.0000
vn -0.4386 0.8944 -0.0872
vn -0.8930 -0.4135 -0.1776
vn -0.4131 0.8944 -0.1711
vn -0.8412 -0.4135 -0.3484
vn -0.3718 0.8944 -0.2484
vn -0.7570 -0.4135 -0.5058
vn -0.3162 0.8944 -0.3162
vn -0.6438 -0.4135 -0.6438
vn -0.2484 0.8944 -0.3718
vn -0.5058 -0.4135 -0.7570
vn -0.1711 0.8944 -0.4131
vn -0.3484 -0.4135 -0.8412
vn -0.0872 0.8944 -0.4386
vn -0.1776 -0.4135 -0.8930
vn 0.0000 -1.0000 -0.0000
vn 0.7179 0.6813 0.1428
vn 0.7320 0.6813 0.0000
vn -0.1648 0.9863 0.0000
vn -0.1616 0.9863 -0.0321
vn 0.0000 0.6813 0.7320
vn -0.1428 0.6813 0.7179
vn -0.1343 0.7252 0.6753
vn 0.0000 0.7252 0.6886
vn -0.2801 0.6813 0.6762
vn -0.2635 0.7252 0.6361
vn -0.4067 0.6813 0.6086
vn -0.3825 0.7252 0.5725
vn -0.5176 0.6813 0.5176
vn -0.4869 0.7252 0.4869
vn -0.6086 0.6813 0.4067
vn -0.5725 0.7252 0.3825
vn -0.6762 0.6813 0.2801
vn -0.6361 0.7252 0.2635
vn -0.7179 0.6813 0.1428
vn -0.6753 0.7252 0.1343
vn -0.7320 0.6813 0.0000
vn -0.6886 0.7252 0.0000
vn -0.7179 0.6813 -0.1428
vn -0.6753 0.7252 -0.1343
vn -0.6762 0.6813 -0.2801
vn -0.6361 0.7252 -0.2635
vn -0.6086 0.6813 -0.4067
vn -0.5725 0.7252 -0.3825
vn -0.5176 0.6813 -0.5176
vn -0.4869 0.7252 -0.4869
vn -0.4067 0.6813 -0.6086
vn -0.3825 0.7252 -0.5725
vn -0.2801 0.6813 -0.6762
vn -0.2635 0.7252 -0.6361
vn -0.1428 0.6813 -0.7179
vn -0.1343 0.7252 -0.6753
vn 0.0000 0.6813 -0.7320
vn 0.0000 0.7252 -0.6886
vn 0.1428 0.6813 -0.7179
vn 0.1343 0.7252 -0.6753
vn 0.2801 0.6813 -0.6762
vn 0.2635 0.7252 -0.6361
vn 0.4067 0.6813 -0.6086
vn 0.3825 0.7252 -0.5725
vn 0.5176 0.6813 -0.5176
vn 0.4869 0.7252 -0.4869
vn 0.6086 0.6813 -0.4067
vn 0.5725 0.7252 -0.3825
vn 0.6762 0.6813 -0.2801
vn 0.6361 0.7252 -0.2635
vn 0.7179 0.6813 -0.1428
vn 0.6753 0.7252 -0.1343
vn 0.6886 0.7252 0.0000
vn 0.6753 0.7252 0.1343
vn 0.6762 0.6813 0.2801
vn 0.6361 0.7252 0.2635
vn 0.6086 0.6813 0.4067
vn 0.5725 0.7252 0.3825
vn 0.5176 0.6813 0.5176
vn 0.4869 0.7252 0.4869
vn 0.4067 0.6813 0.6086
vn 0.3825 0.7252 0.5725
vn 0.2801 0.6813 0.6762
vn 0.2635 0.7252 0.6361
vn 0.1428 0.6813 0.7179
vn 0.1343 0.7252 0.6753
vn 0.1370 0.9863 0.0916
vn 0.1165 0.9863 0.1165
vn -0.1522 0.9863 -0.0631
vn 0.0916 0.9863 0.1370
vn -0.1370 0.9863 -0.0916
vn 0.0631 0.9863 0.1522
vn 0.0000 0.9863 -0.1648
vn 0.0321 0.9863 -0.1616
vn -0.1165 0.9863 -0.1165
vn 0.0321 0.9863 0.1616
vn 0.0631 0.9863 -0.1522
vn -0.0916 0.9863 -0.1370
vn 0.0000 0.9863 0.1648
vn 0.0916 0.9863 -0.1370
vn -0.0631 0.9863 -0.1522
vn -0.0321 0.9863 0.1616
vn 0.1165 0.9863 -0.1165
vn -0.0321 0.9863 -0.1616
vn -0.0631 0.9863 0.1522
vn 0.1370 0.9863 -0.0916
vn -0.0916 0.9863 0.1370
vn 0.1522 0.9863 -0.0631
vn -0.1165 0.9863 0.1165
vn 0.1616 0.9863 -0.0321
vn -0.1370 0.9863 0.0916
vn 0.1648 0.9863 0.0000
vn -0.1522 0.9863 0.0631
vn 0.1616 0.9863 0.0321
vn -0.1616 0.9863 0.0321
vn 0.1522 0.9863 0.0631
vn 0.0000 1.0000 0.0000
usemtl None
s 1
f 1//1 66//2 65//3 3//4
f 3//4 65//3 67//5 5//6
f 5//6 67//5 68//7 7//8
f 7//8 68//7 69//9 9//10
f 9//10 69//9 70//11 11//12
f 11//12 70//11 71//13 13//14
f 13//14 71//13 72//15 15//16
f 15//16 72//15 73//17 17//18
f 17//18 73//17 74//19 19//20
f 19//20 74//19 75//21 21//22
f 21//22 75//21 76//23 23//24
f 23//24 76//23 77//25 25//26
f 25//26 77//25 78//27 27//28
f 27//28 78//27 79//29 29//30
f 29//30 79//29 80//31 31//32
f 31//32 80//31 81//33 33//34
f 33//34 81//33 82//35 35//36
f 35//36 82//35 83//37 37//38
f 37//38 83//37 84//39 39//40
f 39//40 84//39 85//41 41//42
f 41//42 85//41 86//43 43//44
f 43//44 86//43 87//45 45//46
f 45//46 87//45 88//47 47//48
f 47//48 88//47 89//49 49//50
f 49//50 89//49 90//51 51//52
f 51//52 90//51 91//53 53//54
f 53//54 91//53 92//55 55//56
f 55//56 92//55 93//57 57//58
f 57//58 93//57 94//59 59//60
f 59//60 94//59 95//61 61//62
f 61//62 95//61 96//63 63//64
f 63//64 96//63 66//2 1//1
s off
f 1//65 3//65 5//65 7//65 9//65 11//65 13//65 15//65 17//65 19//65 21//65 23//65 25//65 27//65 29//65 31//65 33//65 35//65 37//65 39//65 41//65 43//65 45//65 47//65 49//65 51//65 53//65 55//65 57//65 59//65 61//65 63//65
s 2
f 52//66 50//67 153//68 154//69
f 2//70 4//71 97//72 98//73
f 4//71 6//74 99//75 97//72
f 6//74 8//76 100//77 99//75
f 8//76 10//78 101//79 100//77
f 10//78 12//80 102//81 101//79
f 12//80 14//82 103//83 102//81
f 14//82 16//84 104//85 103//83
f 16//84 18//86 105//87 104//85
f 18//86 20//88 106//89 105//87
f 20//88 22//90 107//91 106//89
f 22//90 24//92 108//93 107//91
f 24//92 26//94 109//95 108//93
f 26//94 28//96 110//97 109//95
f 28//96 30//98 111//99 110//97
f 30//98 32//100 112//101 111//99
f 32//100 34//102 113//103 112//101
f 34//102 36//104 114//105 113//103
f 36//104 38//106 115//107 114//105
f 38//106 40//108 116//109 115//107
f 40//108 42//110 117//111 116//109
f 42//110 44//112 118//113 117//111
f 44//112 46//114 119//115 118//113
f 46//114 48//116 120//117 119//115
f 48//116 50//67 121//118 120//117
f 50//67 52//66 122//119 121//118
f 52//66 54//120 123//121 122//119
f 54//120 56//122 124//123 123//121
f 56//122 58//124 125//125 124//123
f 58//124 60//126 126//127 125//125
f 60//126 62//128 127//129 126//127
f 62//128 64//130 128//131 127//129
f 64//130 2//70 98//73 128//131
f 26//94 24//92 140//132 141//133
f 54//120 52//66 154//69 155//134
f 28//96 26//94 141//133 142//135
f 56//122 54//120 155//134 156//136
f 30//98 28//96 142//135 143//137
f 4//71 2//70 129//138 130//139
f 58//124 56//122 156//136 157//140
f 32//100 30//98 143//137 144//141
f 6//74 4//71 130//139 131//142
f 60//126 58//124 157//140 158//143
f 34//102 32//100 144//141 145//144
f 8//76 6//74 131//142 132//145
f 62//128 60//126 158//143 159//146
f 36//104 34//102 145//144 146//147
f 10//78 8//76 132//145 133//148
f 64//130 62//128 159//146 160//149
f 38//106 36//104 146//147 147//150
f 12//80 10//78 133//148 134//151
f 2//70 64//130 160//149 129//138
f 40//108 38//106 147//150 148//152
f 14//82 12//80 134//151 135//153
f 42//110 40//108 148//152 149//154
f 16//84 14//82 135//153 136//155
f 44//112 42//110 149//154 150//156
f 18//86 16//84 136//155 137//157
f 46//114 44//112 150//156 151//158
f 20//88 18//86 137//157 138//159
f 48//116 46//114 151//158 152//160
f 22//90 20//88 138//159 139//161
f 50//67 48//116 152//160 153//68
f 24//92 22//90 139//161 140//132
f 130//139 129//138 161//162
f 157//140 156//136 161//162
f 144//141 143//137 161//162
f 131//142 130//139 161//162
f 158//143 157//140 161//162
f 145//144 144//141 161//162
f 132//145 131//142 161//162
f 159//146 158//143 161//162
f 146//147 145//144 161//162
f 133//148 132//145 161//162
f 160//149 159//146 161//162
f 147//150 146//147 161//162
f 134//151 133//148 161//162
f 129//138 160//149 161//162
f 148//152 147//150 161//162
f 135//153 134//151 161//162
f 149//154 148//152 161//162
f 136//155 135//153 161//162
f 150//156 149//154 161//162
f 137//157 136//155 161//162
f 151//158 150//156 161//162
f 138//159 137//157 161//162
f 152//160 151//158 161//162
f 139//161 138//159 161//162
f 153//68 152//160 161//162
f 140//132 139//161 161//162
f 154//69 153//68 161//162
f 141//133 140//132 161//162
f 155//134 154//69 161//162
f 142//135 141//133 161//162
f 156//136 155//134 161//162
f 143//137 142//135 161//162
s 3
f 98//73 97//72 65//3 66//2
f 97//72 99//75 67//5 65//3
f 99//75 100//77 68//7 67//5
f 100//77 101//79 69//9 68//7
f 101//79 102//81 70//11 69//9
f 102//81 103//83 71//13 70//11
f 103//83 104//85 72//15 71//13
f 104//85 105//87 73//17 72//15
f 105//87 106//89 74//19 73//17
f 106//89 107//91 75//21 74//19
f 107//91 108//93 76//23 75//21
f 108//93 109//95 77//25 76//23
f 109//95 110//97 78//27 77//25
f 110//97 111//99 79//29 78//27
f 111//99 112//101 80//31 79//29
f 112//101 113//103 81//33 80//31
f 113//103 114//105 82//35 81//33
f 114//105 115//107 83//37 82//35
f 115//107 116//109 84//39 83//37
f 116//109 117//111 85//41 84//39
f 117//111 118//113 86//43 85//41
f 118//113 119//115 87//45 86//43
f 119//115 120//117 88//47 87//45
f 120//117 121//118 89//49 88//47
f 121//118 122//119 90//51 89//49
f 122//119 123//121 91//53 90//51
f 123//121 124//123 92//55 91//53
f 124//123 125//125 93//57 92//55
f 125//125 126//127 94//59 93//57
f 126//127 127//129 95//61 94//59
f 127//129 128//131 96//63 95//61
f 128//131 98//73 66//2 96//63
